<svg width="99" height="52" viewBox="0 0 99 52" fill="none" xmlns="http://www.w3.org/2000/svg">
<path d="M91.7121 51.8572C87.2451 51.8572 84.5246 49.7727 84.4238 46.3412H87.0772C87.2115 48.3295 88.9244 49.5161 91.7121 49.5161C94.6005 49.5161 96.3806 48.522 96.3806 46.8543C96.3806 45.1867 94.399 44.7377 91.5106 44.3529C88.0848 43.8397 84.7261 43.1021 84.7261 39.7989C84.7261 36.5278 87.3794 34.5715 91.7793 34.5715C95.7761 34.5715 98.2615 36.5919 98.3622 39.8951H95.7425C95.6081 37.9709 94.1303 36.7844 91.7793 36.7844C89.0252 36.7844 87.3459 37.7785 87.3459 39.4141C87.3459 40.9535 89.2603 41.4345 91.9472 41.8193C95.541 42.3325 99.0004 43.0701 99.0004 46.5336C99.0004 50.0292 96.0112 51.8572 91.7121 51.8572Z" fill="white"/>
<path d="M74.708 51.2612V34.8925H77.2491V38.2946C78.4545 35.7591 80.7676 34.5715 83.211 34.5715V37.3638C80.0509 37.3638 77.3469 39.1291 77.3469 42.9484V51.2612H74.708Z" fill="white"/>
<path d="M64.6798 51.8572C59.8223 51.8572 57.0879 48.6502 57.0879 43.1983C57.0879 37.7785 59.8866 34.5715 64.7764 34.5715C69.087 34.5715 72.2718 36.9447 72.2718 43.2946V44.0001H59.8544C60.0153 47.4957 61.4951 49.6123 64.6798 49.6123C66.8995 49.6123 68.6367 48.7785 69.4731 46.3091H72.0788C71.2102 50.4462 67.8646 51.8572 64.6798 51.8572ZM59.8866 41.7873H69.6339C69.5374 38.5482 67.5107 36.6561 64.7764 36.6561C61.7524 36.6561 60.2083 38.6444 59.8866 41.7873Z" fill="white"/>
<path d="M52.9613 51.2609C50.1697 51.2609 48.9505 50.0317 48.9505 47.2266V37.2669H46.7686V35.1237H48.9505V30.9949H51.5816V35.1237H54.8865V37.2669H51.5816V46.6592C51.5816 48.3612 52.1591 48.9285 53.956 48.9285H55.2715V51.2609H52.9613Z" fill="white"/>
<path d="M41.9102 51.2606V28.6104H44.9469V51.2606H41.9102Z" fill="white"/>
<path d="M4.92018 51.2608L0 35.1672H2.78379L6.47392 47.7897L9.96984 35.1672H13.1744L16.6704 47.7897L20.3605 35.1672H23.0795L18.1594 51.2608H15.2137L11.556 38.4491L7.86582 51.2608H4.92018Z" fill="white"/>
<path d="M50.1307 12.827C50.1307 9.55269 49.02 8.05858 46.4391 8.05858C43.5642 8.05858 42.1267 10.2839 42.1267 13.9715V22.6501H39.4805V6.4373H42.0287V8.63079C43.2375 6.7552 45.165 5.96045 47.1905 5.96045C50.6208 5.96045 52.8423 8.21752 52.8423 12.0005V22.6501H50.1307V12.827Z" fill="white"/>
<path d="M33.7323 12.827C33.7323 9.55269 32.6215 8.05858 30.0406 8.05858C27.1657 8.05858 25.7283 10.2839 25.7283 13.9715V22.6501H23.082V6.4373H25.6303V8.63079C26.839 6.7552 28.7665 5.96045 30.792 5.96045C34.2223 5.96045 36.4439 8.21752 36.4439 12.0005V22.6501H33.7323V12.827Z" fill="white"/>
<path d="M7.40746 29.2067V26.8951H8.34633C10.8068 26.8951 11.2277 26.6021 12.199 23.8347L12.3608 23.2812L6.08008 5.96045H8.89671L13.6882 19.7324L18.4474 5.96045H21.264L14.5947 24.4533C13.1055 28.0672 12.2313 29.2067 9.51183 29.2067H7.40746Z" fill="white"/>
<path d="M1.2207 22.6502V0H4.25748V22.6502H1.2207Z" fill="white"/>
<path fill-rule="evenodd" clip-rule="evenodd" d="M23.7256 44.1079C24.0383 49.0051 26.9161 51.8571 31.5928 51.8571C36.2695 51.8571 39.1473 49.0051 39.46 44.1079H36.715C36.4512 47.6607 34.6066 49.7405 31.5928 49.7405C28.6091 49.7405 26.739 47.6607 26.4711 44.1079H23.7256Z" fill="white"/>
<path d="M34.6189 38.7436C35.6252 38.7436 36.441 37.943 36.441 36.9554C36.441 35.9678 35.6252 35.1672 34.6189 35.1672C33.6126 35.1672 32.7969 35.9678 32.7969 36.9554C32.7969 37.943 33.6126 38.7436 34.6189 38.7436Z" fill="white"/>
<path d="M28.5418 38.7436C29.5481 38.7436 30.3639 37.943 30.3639 36.9554C30.3639 35.9678 29.5481 35.1672 28.5418 35.1672C27.5355 35.1672 26.7197 35.9678 26.7197 36.9554C26.7197 37.943 27.5355 38.7436 28.5418 38.7436Z" fill="white"/>
</svg>
